<?xml version="1.0" encoding="iso-8859-1"?>
<!-- Uploaded to: SVG Repo, www.svgrepo.com, Generator: SVG Repo Mixer Tools -->
<svg height="800px" width="800px" version="1.1" id="Layer_1" xmlns="http://www.w3.org/2000/svg" xmlns:xlink="http://www.w3.org/1999/xlink" 
	 viewBox="0 0 512.035 512.035" xml:space="preserve">
<g transform="translate(1 1)">
	<polygon style="fill:#63D3FD;" points="255,7.551 50.2,255.017 255,502.484 459.8,502.484 255,255.017 459.8,7.551 	"/>
	<polygon style="fill:#3DB9F9;" points="255,255.017 255,255.017 502.467,7.551 459.8,7.551 	"/>
	<polygon style="fill:#FFFFFF;" points="7.533,255.017 255,502.484 306.2,502.484 306.2,502.484 255,502.484 50.2,255.017 
		255,7.551 	"/>
	<polygon style="fill:#3DB9F9;" points="314.733,502.484 314.733,502.484 502.467,502.484 255,255.017 459.8,502.484 	"/>
	<path d="M502.467,511.017H255c-2.56,0-4.267-0.853-5.973-2.56L1.56,260.991c-3.413-3.413-3.413-8.533,0-11.947L249.027,1.577
		c1.707-1.707,3.413-2.56,5.973-2.56h247.467c3.413,0,6.827,1.707,7.68,5.12c1.707,3.413,0.853,6.827-1.707,9.387l-93.867,93.867
		c-3.413,3.413-8.533,3.413-11.947,0c-3.413-3.413-3.413-8.533,0-11.947l79.36-79.36H258.413L19.48,255.017l238.933,238.933h223.573
		l-232.96-232.96c-3.413-3.413-3.413-8.533,0-11.947l102.4-102.4c3.413-3.413,8.533-3.413,11.947,0
		c3.413,3.413,3.413,8.533,0,11.947l-96.427,96.427L508.44,496.511c2.56,2.56,3.413,5.973,1.707,9.387
		C509.293,509.311,505.88,511.017,502.467,511.017z"/>
	<path d="M391.533,127.017c0-5.12-3.413-8.533-8.533-8.533s-8.533,3.413-8.533,8.533s3.413,8.533,8.533,8.533
		S391.533,132.137,391.533,127.017"/>
</g>
</svg>