<?xml version="1.0" encoding="iso-8859-1"?>
<!-- Uploaded to: SVG Repo, www.svgrepo.com, Generator: SVG Repo Mixer Tools -->
<svg version="1.1" id="Layer_1" xmlns="http://www.w3.org/2000/svg" xmlns:xlink="http://www.w3.org/1999/xlink" 
	 viewBox="0 0 509.287 509.287" xml:space="preserve">
<circle style="fill:#71D456;" cx="254.644" cy="254.644" r="254.644"/>
<path style="fill:#4F5565;" d="M443.846,111.894H65.441c-12.546,0-22.718,10.172-22.718,22.718v89.515
	c0,12.546,10.172,22.718,22.718,22.718h378.066c12.546,0,22.718-10.172,22.718-22.718v-89.176
	C466.564,122.066,456.392,111.894,443.846,111.894z"/>
<circle style="fill:#71D456;" cx="108.842" cy="179.37" r="17.632"/>
<g>
	<rect x="175.301" y="135.629" style="fill:#646B79;" width="13.224" height="87.82"/>
	<rect x="205.478" y="135.629" style="fill:#646B79;" width="13.224" height="87.82"/>
	<rect x="235.317" y="135.629" style="fill:#646B79;" width="13.224" height="87.82"/>
	<rect x="265.155" y="135.629" style="fill:#646B79;" width="13.224" height="87.82"/>
	<rect x="305.166" y="135.629" style="fill:#646B79;" width="33.568" height="16.615"/>
	<rect x="352.297" y="135.629" style="fill:#646B79;" width="33.568" height="16.615"/>
	<rect x="399.089" y="135.629" style="fill:#646B79;" width="33.568" height="16.615"/>
	<rect x="305.166" y="171.232" style="fill:#646B79;" width="33.568" height="16.615"/>
	<rect x="352.297" y="171.232" style="fill:#646B79;" width="33.568" height="16.615"/>
	<rect x="399.089" y="171.232" style="fill:#646B79;" width="33.568" height="16.615"/>
	<rect x="305.166" y="206.834" style="fill:#646B79;" width="33.568" height="16.615"/>
	<rect x="352.297" y="206.834" style="fill:#646B79;" width="33.568" height="16.615"/>
	<rect x="399.089" y="206.834" style="fill:#646B79;" width="33.568" height="16.615"/>
</g>
<path style="fill:#4F5565;" d="M443.846,250.914H65.441c-12.546,0-22.718,10.172-22.718,22.718v89.515
	c0,12.546,10.172,22.718,22.718,22.718h378.066c12.546,0,22.718-10.172,22.718-22.718v-89.515
	C466.564,261.086,456.392,250.914,443.846,250.914z"/>
<circle style="fill:#71D456;" cx="108.842" cy="318.389" r="17.632"/>
<g>
	<rect x="175.301" y="274.31" style="fill:#646B79;" width="13.224" height="87.82"/>
	<rect x="205.478" y="274.31" style="fill:#646B79;" width="13.224" height="87.82"/>
	<rect x="235.317" y="274.31" style="fill:#646B79;" width="13.224" height="87.82"/>
	<rect x="265.155" y="274.31" style="fill:#646B79;" width="13.224" height="87.82"/>
	<rect x="305.166" y="274.31" style="fill:#646B79;" width="33.568" height="16.615"/>
	<rect x="352.297" y="274.31" style="fill:#646B79;" width="33.568" height="16.615"/>
	<rect x="399.089" y="274.31" style="fill:#646B79;" width="33.568" height="16.615"/>
	<rect x="305.166" y="309.913" style="fill:#646B79;" width="33.568" height="16.615"/>
	<rect x="352.297" y="309.913" style="fill:#646B79;" width="33.568" height="16.615"/>
	<rect x="399.089" y="309.913" style="fill:#646B79;" width="33.568" height="16.615"/>
	<rect x="305.166" y="345.515" style="fill:#646B79;" width="33.568" height="16.615"/>
	<rect x="352.297" y="345.515" style="fill:#646B79;" width="33.568" height="16.615"/>
	<rect x="399.089" y="345.515" style="fill:#646B79;" width="33.568" height="16.615"/>
</g>
<g>
	<rect x="87.481" y="385.865" style="fill:#333842;" width="60.355" height="11.528"/>
	<rect x="361.113" y="385.865" style="fill:#333842;" width="60.355" height="11.528"/>
</g>
</svg>